<svg xmlns="http://www.w3.org/2000/svg" width="59" height="22"><defs><clipPath id="a"><path d="M0 0h59v22H0z" fill="none"/></clipPath></defs><g data-name="Mortarr Icon"><g data-name="Group 65" clip-path="url(#a)"><path d="M23.629 6.877L18.071.197a.492.492 0 00-.706-.061L.182 14.431a.492.492 0 00-.061.706l5.558 6.679a.492.492 0 00.706.061L23.588 7.583a.5.5 0 00.041-.706z" data-name="Path 38"/><path d="M41.265 6.877L35.693.182a.492.492 0 00-.706-.061l-17.2 14.3a.492.492 0 00-.061.706l5.558 6.679a.492.492 0 00.706.061l17.2-14.3a.489.489 0 00.075-.69z" data-name="Path 39"/><path d="M58.886 6.862L53.329.182a.492.492 0 00-.706-.061l-17.2 14.3a.492.492 0 00-.061.706l5.558 6.679a.492.492 0 00.706.061l17.2-14.3a.507.507 0 00.06-.705z" data-name="Path 40"/></g></g></svg>